<svg xmlns="http://www.w3.org/2000/svg" xmlns:xlink="http://www.w3.org/1999/xlink" version="1.1" x="0px" y="0px" viewBox="0 0 100 100" enable-background="new 0 0 100 100" style="fill:#fff" xml:space="preserve"><g><path d="M1.975,65.616c-0.446-0.446-0.569-1.133-0.289-1.712l7.17-14.869L1.685,34.167c-0.304-0.629-0.132-1.386,0.415-1.823   l5.51-4.408c0.642-0.514,1.589-0.24,2.098,0.398L19.911,41h23.537l-5.513-27.354c-0.075-0.369-0.008-0.842,0.188-1.164L44,2.75   c0.278-0.458,0.779-0.755,1.314-0.744c0.535,0.012,1.024,0.473,1.282,0.941L67.475,41h22.073c2.266,0,4.382,0.706,5.983,2.308   S98,46.863,98,49.128v0.362c0,2.27-0.867,4.412-2.469,6.014S91.814,58,89.548,58H67.475l-20.88,37.832   c-0.258,0.468-0.747,0.758-1.281,0.768c-0.536,0.012-1.037-0.263-1.313-0.724l-5.877-9.668c-0.197-0.322-0.264-0.696-0.188-1.066   L43.446,58H19.461L9.708,69.926c-0.521,0.637-1.457,0.729-2.099,0.216L2.099,65.73C2.055,65.695,2.014,65.655,1.975,65.616z    M4.906,33.939l6.966,14.445c0.199,0.412,0.199,0.892,0,1.303L4.906,64.131l3.418,2.734l9.263-11.326   C17.873,55.189,18.299,55,18.75,55h26.532c0.45,0,0.87,0.188,1.162,0.539c0.284,0.348,0.398,0.799,0.308,1.24l-5.76,28.373   l4.228,6.953l20.057-36.342C65.54,55.285,66.043,55,66.59,55h22.958c1.465,0,2.826-0.582,3.861-1.617S95,50.958,95,49.494v-0.362   c0-1.468-0.557-2.668-1.592-3.703S91.012,44,89.548,44H66.59c-0.547,0-1.05-0.474-1.314-0.952L45.22,6.566l-4.229,6.927   l5.761,28.378c0.09,0.441-0.023,1.065-0.309,1.414C46.159,43.633,45.732,44,45.282,44H19.199c-0.45,0-0.875-0.377-1.161-0.728   L8.324,31.294L4.906,33.939z"/></g></svg>