<svg xmlns="http://www.w3.org/2000/svg" xmlns:xlink="http://www.w3.org/1999/xlink" version="1.1" x="0px" y="0px" viewBox="0 0 100 100" style="enable-background:new 0 0 100 100;fill:#fff" xml:space="preserve"><g><path class="st0" d="M73.6,63.3c-4.4,0-8,3.6-8,8s3.6,8,8,8s8-3.6,8-8S78,63.3,73.6,63.3z M73.6,75.6c-2.4,0-4.3-1.9-4.3-4.3   c0-2.4,1.9-4.3,4.3-4.3c2.4,0,4.3,1.9,4.3,4.3C77.9,73.6,76,75.6,73.6,75.6z"/><path class="st0" d="M26.4,63.3c-4.4,0-8,3.6-8,8s3.6,8,8,8c4.4,0,8-3.6,8-8S30.8,63.3,26.4,63.3z M26.4,75.6   c-2.4,0-4.3-1.9-4.3-4.3c0-2.4,1.9-4.3,4.3-4.3c2.4,0,4.3,1.9,4.3,4.3C30.7,73.6,28.7,75.6,26.4,75.6z"/><path class="st0" d="M91.4,26.6h-2.8v-5.2c0-7.7-1-15.8-12.3-15.8h-49c-11.5,0-15.8,3.8-15.8,14.1v6.9H8.6c-2,0-3.6,1.6-3.6,3.6v14   c0,2,1.6,3.6,3.6,3.6h2.9v29.7c0,2.5,0.8,4.3,1.9,5.6c-0.1,0.2-0.2,0.5-0.2,0.8v5.2c0,2.9,2.4,5.3,5.3,5.3h7c2.9,0,5.3-2.4,5.3-5.3   v-2.8h38.3v2.8c0,2.9,2.4,5.3,5.3,5.3h7c2.9,0,5.3-2.4,5.3-5.3v-5.2c0-0.3-0.1-0.6-0.2-0.8c1.2-1.3,1.9-3.1,1.9-5.6V47.7h2.8   c2,0,3.6-1.6,3.6-3.6v-14C95,28.2,93.4,26.6,91.4,26.6z M11.4,44.1l-2.8,0.1L8.6,30.2h2.9V44.1z M27.2,89.1c0,0.9-0.7,1.7-1.7,1.7   h-7c-0.9,0-1.7-0.7-1.7-1.7v-3.8c2.6,1,5.5,1,6.9,1h3.4V89.1z M83.2,89.1c0,0.9-0.7,1.7-1.7,1.7h-7c-0.9,0-1.7-0.7-1.7-1.7v-2.8   h3.4c1.5,0,4.3,0,6.9-1V89.1z M84.9,77.4c0,3.1-1.5,5.2-8.7,5.2H23.8c-7.2,0-8.7-2.1-8.7-5.2V19.7c0-8.2,2.6-10.4,12.2-10.4h49   c6.7,0,8.7,2.7,8.7,12.2V77.4z M88.6,44.1V30.2l2.8-0.1l0.1,13.9H88.6z"/><path class="st0" d="M32.5,18.1h36.7c1,0,1.8-0.8,1.8-1.8s-0.8-1.8-1.8-1.8H32.5c-1,0-1.8,0.8-1.8,1.8S31.5,18.1,32.5,18.1z"/><path class="st0" d="M74.5,23.1h-49c-4.5,0-7.1,2.6-7.1,7.1v21c0,4.5,2.6,7.1,7.1,7.1l49-0.1c2.9,0,7.1-2.5,7.1-6.9v-21   C81.6,25.7,79,23.1,74.5,23.1z M77.9,51.2c0,2.3-2.4,3.3-3.4,3.3c0,0,0,0,0,0l-49,0.1c-2.5,0-3.4-0.9-3.4-3.4v-21   c0-2.5,0.9-3.4,3.4-3.4h49c2.5,0,3.4,0.9,3.4,3.4V51.2z"/></g></svg>