<svg xmlns="http://www.w3.org/2000/svg" viewBox="0 0 32 32" enable-background="new 0 0 32 32" style="fill:#fff" x="0px" y="0px"><g><path d="M29.281 21h-2.281c-.553 0-1-.447-1-1s.447-1 1-1h2.281c.184 0 .297-.101.348-.161.052-.061.133-.188.103-.37l-.22-1.317c-.222-1.326-1.308-2.368-2.641-2.535l-1.982-.41c-.852-.178-1.649-.512-2.372-.994l-3.22-2.146c-1.047-.698-2.265-1.067-3.522-1.067h-4.142c-.838 0-1.669.277-2.339.779l-1.625 1.219c-.818.613-1.78 1.043-2.782 1.244l-2.48.497c-.237.047-.407.255-.407.494v3.787c0 .541.439.98.979.98h1.021c.552 0 1 .447 1 1s-.448 1-1 1h-1.021c-1.643 0-2.979-1.337-2.979-2.979v-3.787c0-1.189.847-2.222 2.013-2.456l2.481-.497c.711-.142 1.394-.447 1.974-.882l1.626-1.219c1.014-.761 2.271-1.18 3.539-1.18h4.142c1.654 0 3.255.485 4.631 1.402l3.22 2.146c.509.339 1.071.575 1.672.7l1.901.396c2.124.262 3.919 1.985 4.285 4.177l.22 1.318c.119.714-.082 1.439-.549 1.991-.467.554-1.151.87-1.874.87zM7 24c-2.206 0-4-1.794-4-4s1.794-4 4-4 4 1.794 4 4-1.794 4-4 4zm0-6c-1.103 0-2 .897-2 2s.897 2 2 2 2-.897 2-2-.897-2-2-2zM24 24c-2.206 0-4-1.794-4-4s1.794-4 4-4 4 1.794 4 4-1.794 4-4 4zm0-6c-1.103 0-2 .897-2 2s.897 2 2 2 2-.897 2-2-.897-2-2-2zM21 21h-11c-.552 0-1-.447-1-1s.448-1 1-1h11c.553 0 1 .447 1 1s-.447 1-1 1z"/></g></svg>