<svg xmlns="http://www.w3.org/2000/svg" xmlns:xlink="http://www.w3.org/1999/xlink" version="1.1" x="0px" y="0px" viewBox="0 0 100 120" style="fill:#fff" enable-background="new 0 0 100 100" xml:space="preserve"><g><path d="M75.181,52.553c-1.639,0-3.221,0.232-4.74,0.629c-2.326-1.092-4.631-2.172-5.734-2.689c0-2.959-0.014-11.025-0.014-14.244   c0-1.832-0.451-3.697-2.098-4.721c-4.885-3.035-16.402-6.021-25.029,4.389c-1.291,1.559-1.797,4.143-0.281,5.33   c1.99,1.561,2.902,2.221,7.016,5.295c1.758,1.312,3.912,2.596,5.223,3.465c-0.355,1.316-0.973,3.605-1.609,5.967l-2.305,8.4   c-0.611,2.275,0.803,3.875,2.5,4.33l3.373,0.812l5.521-20.307c0.342-1.271-0.242-2.818-1.496-3.65l-8.93-5.93   c4.984-3.816,10.191-1.1,11.301-0.436c0.248,0.148,0.508,0.264,0.768,0.359v12.865c0,1.174,0.682,2.244,1.746,2.744l3.133,1.469   c-4.342,3.447-7.141,8.758-7.141,14.719c0,10.363,8.432,18.795,18.797,18.795s18.793-8.432,18.793-18.795   S85.546,52.553,75.181,52.553z M75.181,88.457c-9.434,0-17.109-7.674-17.109-17.107c0-5.732,2.842-10.803,7.182-13.908l9.318,4.371   c1.518,0.709,3.322,0.057,4.031-1.457c0.195-0.416,0.287-0.854,0.287-1.285c0-1.139-0.645-2.229-1.742-2.744   c0,0-1.832-0.859-4.125-1.934c0.707-0.09,1.426-0.152,2.158-0.152c9.434,0,17.105,7.676,17.105,17.109S84.614,88.457,75.181,88.457   z"/><path d="M71.782,41.195c2.871,0,5.211-2.828,5.211-6.307c0-3.475-2.34-6.303-5.211-6.303c-2.877,0-5.215,2.828-5.215,6.303   C66.567,38.367,68.905,41.195,71.782,41.195z M75.306,34.889c0,2.547-1.582,4.619-3.523,4.619c-1.945,0-3.527-2.072-3.527-4.619   c0-2.545,1.582-4.615,3.527-4.615C73.724,30.273,75.306,32.344,75.306,34.889z"/><path d="M37.286,57.328c-3.322-2.961-7.684-4.775-12.473-4.775c-10.365,0-18.797,8.432-18.797,18.795   c0,10.365,8.432,18.797,18.797,18.797c7.516,0,13.996-4.445,17.002-10.834l2.451-0.062L44.3,47.949l-7.016-5.143L37.286,57.328z    M24.813,88.457c-9.434,0-17.109-7.676-17.109-17.109c0-9.432,7.676-17.107,17.109-17.107c4.92,0,9.35,2.102,12.473,5.439   l0.002,11.988l-0.025,4.133c0,1.984,1.266,3.123,2.715,3.436C37.12,84.707,31.399,88.457,24.813,88.457z"/></g></svg>