<svg xmlns:dc="http://purl.org/dc/elements/1.1/" xmlns:cc="http://creativecommons.org/ns#" xmlns:rdf="http://www.w3.org/1999/02/22-rdf-syntax-ns#" xmlns:svg="http://www.w3.org/2000/svg" xmlns="http://www.w3.org/2000/svg" xmlns:sodipodi="http://sodipodi.sourceforge.net/DTD/sodipodi-0.dtd" xmlns:inkscape="http://www.inkscape.org/namespaces/inkscape" version="1.1" x="0px" y="0px" viewBox="0 0 100 100"><g transform="translate(0,-952.36218)"><path style="font-size:medium;font-style:normal;font-variant:normal;font-weight:normal;font-stretch:normal;text-indent:0;text-align:start;text-decoration:none;line-height:normal;letter-spacing:normal;word-spacing:normal;text-transform:none;direction:ltr;block-progression:tb;writing-mode:lr-tb;text-anchor:start;baseline-shift:baseline;opacity:1;color:#000000;fill:#fff;fill-opacity:1;stroke:none;stroke-width:4;marker:none;visibility:visible;display:inline;overflow:visible;enable-background:accumulate;font-family:Sans;-inkscape-font-specification:Sans" d="M 45 23 C 34.402388 23 25.582514 30.8726 24.15625 41.09375 C 14.604712 41.5439 7 49.3354 7 59 C 7 68.9547 15.045297 77 25 77 L 75 77 C 84.954703 77 93 68.9547 93 59 C 93 51.4676 88.44786 45.05891 81.875 42.375 C 80.622696 34.20729 73.494549 28 65 28 C 63.102848 28 61.078358 28.32029 59.28125 28.90625 C 55.536026 25.24441 50.683505 23 45 23 z M 45 25 C 50.358233 25 54.809673 27.11542 58.28125 30.6875 A 1.0001 1.0001 0 0 0 59.34375 30.9375 C 60.94817 30.32834 63.11049 30 65 30 C 72.680544 30 79.099426 35.6812 80 43.09375 A 1.0001 1.0001 0 0 0 80.65625 43.9375 C 86.762817 46.17924 91 52.063 91 59 C 91 67.8813 83.881297 75 75 75 L 25 75 C 16.118703 75 9 67.8813 9 59 C 9 50.1187 16.118705 43 25 43 A 1.0001 1.0001 0 0 0 26 42.09375 C 26.958761 32.50303 35.141972 25 45 25 z M 37.8125 37 A 1.0001 1.0001 0 0 0 37 38 L 37 68 A 1.0001 1.0001 0 0 0 38 69 L 62 69 A 1.0001 1.0001 0 0 0 63 68 L 63 48 A 1.0001 1.0001 0 0 0 62.71875 47.28125 L 52.71875 37.28125 A 1.0001 1.0001 0 0 0 52 37 L 38 37 A 1.0001 1.0001 0 0 0 37.8125 37 z M 39 39 L 51 39 L 51 48 A 1.0000999 1.0000999 0 0 0 52 49 L 61 49 L 61 67 L 39 67 L 39 39 z M 53 40.40625 L 59.59375 47 L 53 47 L 53 40.40625 z " transform="translate(0,952.36218)"/></g></svg>