<svg xmlns="http://www.w3.org/2000/svg" xmlns:xlink="http://www.w3.org/1999/xlink" version="1.1" x="0px" y="0px" viewBox="0 0 100 100" style="enable-background:new 0 0 100 100;fill:#fff" xml:space="preserve"><g><path d="M69.4,95L69.4,95c-2.4,0-4.6-0.9-6.2-2.6c-1.9-1.9-5-1.9-6.8,0c-3.4,3.4-9.1,3.4-12.5,0c-0.9-0.9-2.2-1.4-3.4-1.4l0,0   c-1.4,0-2.6,0.5-3.4,1.4c-3.4,3.4-9.1,3.4-12.5,0c-0.9-0.9-2.2-1.4-3.4-1.4l0,0c-1.4,0-2.6,0.5-3.4,1.4c-0.7,0.7-2.1,0.7-2.7,0   c-0.7-0.7-0.7-2.1,0-2.7c1.7-1.7,3.9-2.6,6.2-2.6l0,0c2.4,0,4.6,0.9,6.2,2.6c1.9,1.9,5,1.9,6.8,0c1.7-1.7,3.9-2.6,6.2-2.6l0,0   c2.4,0,4.6,0.9,6.2,2.6c1.9,1.9,5,1.9,6.8,0c1.7-1.7,3.9-2.6,6.2-2.6l0,0c2.4,0,4.6,0.9,6.2,2.6c0.9,0.9,2.2,1.4,3.4,1.4l0,0   c1.4,0,2.6-0.5,3.4-1.4c3.4-3.4,9.1-3.4,12.5,0c0.7,0.7,0.7,2.1,0,2.7c-0.7,0.7-2.1,0.7-2.7,0c-1.9-1.9-5-1.9-6.8,0   C73.9,94.1,71.8,95,69.4,95z"/><path d="M62.9,83.7H37.3c-6,0-11.3-3.8-13.2-9.6l-6.2-12.5c0-0.2,0-0.2-0.2-0.3c-0.7-2.4,0.3-5,2.6-6l19.5-9.2   c6.5-3.1,14-3.1,20.7,0l19.3,9.2c2.2,1,3.4,3.6,2.6,6c0,0.2,0,0.2-0.2,0.3l-6.2,12.5C74.2,79.9,69.1,83.7,62.9,83.7z M21.5,60.1   l6.2,12.3c0,0.2,0,0.2,0.2,0.3c1.2,4.1,5.1,7,9.4,7h25.8c4.3,0,8.2-2.7,9.4-7c0-0.2,0-0.2,0.2-0.3l6.2-12.3c0.2-0.5-0.2-1-0.7-1.2   l-19.5-9.2c-5.5-2.6-11.8-2.6-17.3,0L22,58.9C21.7,59.2,21.3,59.6,21.5,60.1z M80.5,60.8L80.5,60.8L80.5,60.8z"/><path d="M73.2,49c-1,0-1.9-0.9-1.9-1.9V32.9c0-1.4-1-2.4-2.4-2.4H31.3c-1.4,0-2.4,1-2.4,2.4v14.2c0,1-0.9,1.9-1.9,1.9   s-1.9-0.9-1.9-1.9V32.9c0-3.4,2.7-6.3,6.3-6.3h37.6c3.4,0,6.3,2.7,6.3,6.3v14.2C75.1,48.1,74.2,49,73.2,49z"/><path d="M65,38.4H35.2c-1,0-1.9-0.9-1.9-1.9c0-1,0.9-1.9,1.9-1.9H65c1,0,1.9,0.9,1.9,1.9C66.9,37.5,66,38.4,65,38.4z"/><path d="M56.9,23.5c-1,0-1.9-0.9-1.9-1.9V11.3c0-1.4-1-2.4-2.4-2.4h-5.1c-1.4,0-2.4,1-2.4,2.4v10.3c0,1-0.9,1.9-1.9,1.9   c-1,0-1.9-0.9-1.9-1.9V11.3c0-3.4,2.7-6.3,6.3-6.3h5.1c3.4,0,6.3,2.7,6.3,6.3v10.3C59,22.6,58,23.5,56.9,23.5z"/></g></svg>