<svg xmlns="http://www.w3.org/2000/svg" xmlns:xlink="http://www.w3.org/1999/xlink" version="1.1" x="0px" y="0px" viewBox="0 0 100 100" enable-background="new 0 0 100 100" xml:space="preserve" style="fill:#fff">
	<symbol xmlns="http://www.w3.org/2000/svg" id="a" viewBox="-45 -44.7 90 89.4"><path d="M-0.7,43.7v-44v-2.4L1-1l30.8,31.7C39.7,22.5,44,11.7,44,0.3c0-24.3-19.7-44-44-44S-44-24-44,0.3   C-44,24.2-24.5,43.2-0.7,43.7 M0.3,44.7C-24.6,44.7-45,25.1-45,0.3c0-24.9,20.1-45,45-45s45,20.1,45,45c0,12.4-5,23.7-13.2,31.8   L0.3-0.3V44.7L0.3,44.7z"/></symbol>
	<g xmlns="http://www.w3.org/2000/svg"><path display="none" d="M89,5v2.4C89,8.3,88.3,9,87.4,9h-4.8C81.7,9,81,8.3,81,7.4V5H19v2.4C19,8.3,18.3,9,17.4,9h-4.8   C11.7,9,11,8.3,11,7.4V5H5v90h6v-2.4c0-0.9,0.7-1.6,1.6-1.6h4.8c0.9,0,1.6,0.7,1.6,1.6V95h62v-2.4c0-0.9,0.7-1.6,1.6-1.6h4.8   c0.9,0,1.6,0.7,1.6,1.6V95h6V5H89z M19,82.4c0,0.9-0.7,1.6-1.6,1.6h-4.8c-0.9,0-1.6-0.7-1.6-1.6v-4.8c0-0.9,0.7-1.6,1.6-1.6h4.8   c0.9,0,1.6,0.7,1.6,1.6V82.4z M19,67.4c0,0.9-0.7,1.6-1.6,1.6h-4.8c-0.9,0-1.6-0.7-1.6-1.6v-4.8c0-0.9,0.7-1.6,1.6-1.6h4.8   c0.9,0,1.6,0.7,1.6,1.6V67.4z M19,52.4c0,0.9-0.7,1.6-1.6,1.6h-4.8c-0.9,0-1.6-0.7-1.6-1.6v-4.8c0-0.9,0.7-1.6,1.6-1.6h4.8   c0.9,0,1.6,0.7,1.6,1.6V52.4z M19,37.4c0,0.9-0.7,1.6-1.6,1.6h-4.8c-0.9,0-1.6-0.7-1.6-1.6v-4.8c0-0.9,0.7-1.6,1.6-1.6h4.8   c0.9,0,1.6,0.7,1.6,1.6V37.4z M19,22.4c0,0.9-0.7,1.6-1.6,1.6h-4.8c-0.9,0-1.6-0.7-1.6-1.6v-4.8c0-0.9,0.7-1.6,1.6-1.6h4.8   c0.9,0,1.6,0.7,1.6,1.6V22.4z M89,82.4c0,0.9-0.7,1.6-1.6,1.6h-4.8c-0.9,0-1.6-0.7-1.6-1.6v-4.8c0-0.9,0.7-1.6,1.6-1.6h4.8   c0.9,0,1.6,0.7,1.6,1.6V82.4z M89,67.4c0,0.9-0.7,1.6-1.6,1.6h-4.8c-0.9,0-1.6-0.7-1.6-1.6v-4.8c0-0.9,0.7-1.6,1.6-1.6h4.8   c0.9,0,1.6,0.7,1.6,1.6V67.4z M89,52.4c0,0.9-0.7,1.6-1.6,1.6h-4.8c-0.9,0-1.6-0.7-1.6-1.6v-4.8c0-0.9,0.7-1.6,1.6-1.6h4.8   c0.9,0,1.6,0.7,1.6,1.6V52.4z M89,37.4c0,0.9-0.7,1.6-1.6,1.6h-4.8c-0.9,0-1.6-0.7-1.6-1.6v-4.8c0-0.9,0.7-1.6,1.6-1.6h4.8   c0.9,0,1.6,0.7,1.6,1.6V37.4z M89,22.4c0,0.9-0.7,1.6-1.6,1.6h-4.8c-0.9,0-1.6-0.7-1.6-1.6v-4.8c0-0.9,0.7-1.6,1.6-1.6h4.8   c0.9,0,1.6,0.7,1.6,1.6V22.4z"/><path display="none" d="M93,7v86h-2v-0.4c0-2-1.6-3.6-3.6-3.6h-4.8c-2,0-3.6,1.6-3.6,3.6V93H21v-0.4   c0-2-1.6-3.6-3.6-3.6h-4.8c-2,0-3.6,1.6-3.6,3.6V93H7V7h2v0.4c0,2,1.6,3.6,3.6,3.6h4.8c2,0,3.6-1.6,3.6-3.6V7h58v0.4   c0,2,1.6,3.6,3.6,3.6h4.8c2,0,3.6-1.6,3.6-3.6V7H93 M12.5,26h4.9c2,0,3.6-1.6,3.6-3.6v-4.9c0-2-1.6-3.6-3.6-3.6h-4.9   c-2,0-3.6,1.6-3.6,3.6v4.9C9,24.4,10.6,26,12.5,26 M82.6,26h4.8c2,0,3.6-1.6,3.6-3.6v-4.8c0-2-1.6-3.6-3.6-3.6h-4.8   c-2,0-3.6,1.6-3.6,3.6v4.8C79,24.4,80.6,26,82.6,26 M12.5,41.1h5c2,0,3.6-1.6,3.6-3.6v-5c0-2-1.6-3.6-3.6-3.6h-5   c-2,0-3.6,1.6-3.6,3.6v5C8.9,39.5,10.5,41.1,12.5,41.1 M82.6,41h4.8c2,0,3.6-1.6,3.6-3.6v-4.8c0-2-1.6-3.6-3.6-3.6h-4.8   c-2,0-3.6,1.6-3.6,3.6v4.8C79,39.4,80.6,41,82.6,41 M82.6,56h4.8c2,0,3.6-1.6,3.6-3.6v-4.8c0-2-1.6-3.6-3.6-3.6h-4.8   c-2,0-3.6,1.6-3.6,3.6v4.8C79,54.4,80.6,56,82.6,56 M12.6,56h4.8c2,0,3.6-1.6,3.6-3.6v-4.8c0-2-1.6-3.6-3.6-3.6h-4.8   c-2,0-3.6,1.6-3.6,3.6v4.8C9,54.4,10.6,56,12.6,56 M82.6,71h4.8c2,0,3.6-1.6,3.6-3.6v-4.8c0-2-1.6-3.6-3.6-3.6h-4.8   c-2,0-3.6,1.6-3.6,3.6v4.8C79,69.4,80.6,71,82.6,71 M12.6,71h4.8c2,0,3.6-1.6,3.6-3.6v-4.8c0-2-1.6-3.6-3.6-3.6h-4.8   c-2,0-3.6,1.6-3.6,3.6v4.8C9,69.4,10.6,71,12.6,71 M82.6,86h4.8c2,0,3.6-1.6,3.6-3.6v-4.8c0-2-1.6-3.6-3.6-3.6h-4.8   c-2,0-3.6,1.6-3.6,3.6v4.8C79,84.4,80.6,86,82.6,86 M12.6,86h4.8c2,0,3.6-1.6,3.6-3.6v-4.8c0-2-1.6-3.6-3.6-3.6h-4.8   c-2,0-3.6,1.6-3.6,3.6v4.8C9,84.4,10.6,86,12.6,86 M95,5h-6v2.4C89,8.3,88.3,9,87.4,9h-4.8C81.7,9,81,8.3,81,7.4V5H19v2.4   C19,8.3,18.3,9,17.4,9h-4.8C11.7,9,11,8.3,11,7.4V5H5v90h6v-2.4c0-0.9,0.7-1.6,1.6-1.6h4.8c0.9,0,1.6,0.7,1.6,1.6V95h62v-2.4   c0-0.9,0.7-1.6,1.6-1.6h4.8c0.9,0,1.6,0.7,1.6,1.6V95h6V5L95,5z M12.5,24c-0.9,0-1.6-0.7-1.6-1.6v-4.9c0-0.9,0.7-1.6,1.6-1.6h4.9   c0.9,0,1.6,0.7,1.6,1.6v4.9c0,0.9-0.7,1.6-1.6,1.6H12.5L12.5,24z M82.6,24c-0.9,0-1.6-0.7-1.6-1.6v-4.8c0-0.9,0.7-1.6,1.6-1.6h4.8   c0.9,0,1.6,0.7,1.6,1.6v4.8c0,0.9-0.7,1.6-1.6,1.6H82.6L82.6,24z M12.5,39.1c-0.9,0-1.6-0.7-1.6-1.6v-5c0-0.9,0.7-1.6,1.6-1.6h5   c0.9,0,1.6,0.7,1.6,1.6v5c0,0.9-0.7,1.6-1.6,1.6H12.5L12.5,39.1z M82.6,39c-0.9,0-1.6-0.7-1.6-1.6v-4.8c0-0.9,0.7-1.6,1.6-1.6h4.8   c0.9,0,1.6,0.7,1.6,1.6v4.8c0,0.9-0.7,1.6-1.6,1.6H82.6L82.6,39z M82.6,54c-0.9,0-1.6-0.7-1.6-1.6v-4.8c0-0.9,0.7-1.6,1.6-1.6h4.8   c0.9,0,1.6,0.7,1.6,1.6v4.8c0,0.9-0.7,1.6-1.6,1.6H82.6L82.6,54z M12.6,54c-0.9,0-1.6-0.7-1.6-1.6v-4.8c0-0.9,0.7-1.6,1.6-1.6h4.8   c0.9,0,1.6,0.7,1.6,1.6v4.8c0,0.9-0.7,1.6-1.6,1.6H12.6L12.6,54z M82.6,69c-0.9,0-1.6-0.7-1.6-1.6v-4.8c0-0.9,0.7-1.6,1.6-1.6h4.8   c0.9,0,1.6,0.7,1.6,1.6v4.8c0,0.9-0.7,1.6-1.6,1.6H82.6L82.6,69z M12.6,69c-0.9,0-1.6-0.7-1.6-1.6v-4.8c0-0.9,0.7-1.6,1.6-1.6h4.8   c0.9,0,1.6,0.7,1.6,1.6v4.8c0,0.9-0.7,1.6-1.6,1.6H12.6L12.6,69z M82.6,84c-0.9,0-1.6-0.7-1.6-1.6v-4.8c0-0.9,0.7-1.6,1.6-1.6h4.8   c0.9,0,1.6,0.7,1.6,1.6v4.8c0,0.9-0.7,1.6-1.6,1.6H82.6L82.6,84z M12.6,84c-0.9,0-1.6-0.7-1.6-1.6v-4.8c0-0.9,0.7-1.6,1.6-1.6h4.8   c0.9,0,1.6,0.7,1.6,1.6v4.8c0,0.9-0.7,1.6-1.6,1.6H12.6L12.6,84z"/><path d="M94,6v88h-4v-1.4c0-1.4-1.2-2.6-2.6-2.6h-4.8c-1.4,0-2.6,1.2-2.6,2.6V94H20v-1.4c0-1.4-1.2-2.6-2.6-2.6h-4.8   c-1.4,0-2.6,1.2-2.6,2.6V94H6V6h4v1.4c0,1.4,1.2,2.6,2.6,2.6h4.8c1.4,0,2.6-1.2,2.6-2.6V6h60v1.4c0,1.4,1.2,2.6,2.6,2.6h4.8   c1.4,0,2.6-1.2,2.6-2.6V6H94 M12.5,25h4.9c1.4,0,2.6-1.2,2.6-2.6v-4.9c0-1.4-1.2-2.6-2.6-2.6h-4.9c-1.4,0-2.6,1.2-2.6,2.6v4.9   C10,23.9,11.1,25,12.5,25 M82.6,25h4.8c1.4,0,2.6-1.2,2.6-2.6v-4.8c0-1.4-1.2-2.6-2.6-2.6h-4.8c-1.4,0-2.6,1.2-2.6,2.6v4.8   C80,23.8,81.2,25,82.6,25 M12.5,40.1h5c1.4,0,2.6-1.2,2.6-2.6v-5c0-1.4-1.2-2.6-2.6-2.6h-5c-1.4,0-2.6,1.2-2.6,2.6v5   C9.9,38.9,11.1,40.1,12.5,40.1 M82.6,40h4.8c1.4,0,2.6-1.2,2.6-2.6v-4.8c0-1.4-1.2-2.6-2.6-2.6h-4.8c-1.4,0-2.6,1.2-2.6,2.6v4.8   C80,38.8,81.2,40,82.6,40 M82.6,55h4.8c1.4,0,2.6-1.2,2.6-2.6v-4.8c0-1.4-1.2-2.6-2.6-2.6h-4.8c-1.4,0-2.6,1.2-2.6,2.6v4.8   C80,53.8,81.2,55,82.6,55 M12.6,55h4.8c1.4,0,2.6-1.2,2.6-2.6v-4.8c0-1.4-1.2-2.6-2.6-2.6h-4.8c-1.4,0-2.6,1.2-2.6,2.6v4.8   C10,53.8,11.2,55,12.6,55 M82.6,70h4.8c1.4,0,2.6-1.2,2.6-2.6v-4.8c0-1.4-1.2-2.6-2.6-2.6h-4.8c-1.4,0-2.6,1.2-2.6,2.6v4.8   C80,68.8,81.2,70,82.6,70 M12.6,70h4.8c1.4,0,2.6-1.2,2.6-2.6v-4.8c0-1.4-1.2-2.6-2.6-2.6h-4.8c-1.4,0-2.6,1.2-2.6,2.6v4.8   C10,68.8,11.2,70,12.6,70 M82.6,85h4.8c1.4,0,2.6-1.2,2.6-2.6v-4.8c0-1.4-1.2-2.6-2.6-2.6h-4.8c-1.4,0-2.6,1.2-2.6,2.6v4.8   C80,83.8,81.2,85,82.6,85 M12.6,85h4.8c1.4,0,2.6-1.2,2.6-2.6v-4.8c0-1.4-1.2-2.6-2.6-2.6h-4.8c-1.4,0-2.6,1.2-2.6,2.6v4.8   C10,83.8,11.2,85,12.6,85 M95,5h-6v2.4C89,8.3,88.3,9,87.4,9h-4.8C81.7,9,81,8.3,81,7.4V5H19v2.4C19,8.3,18.3,9,17.4,9h-4.8   C11.7,9,11,8.3,11,7.4V5H5v90h6v-2.4c0-0.9,0.7-1.6,1.6-1.6h4.8c0.9,0,1.6,0.7,1.6,1.6V95h62v-2.4c0-0.9,0.7-1.6,1.6-1.6h4.8   c0.9,0,1.6,0.7,1.6,1.6V95h6V5L95,5z M12.5,24c-0.9,0-1.6-0.7-1.6-1.6v-4.9c0-0.9,0.7-1.6,1.6-1.6h4.9c0.9,0,1.6,0.7,1.6,1.6v4.9   c0,0.9-0.7,1.6-1.6,1.6H12.5L12.5,24z M82.6,24c-0.9,0-1.6-0.7-1.6-1.6v-4.8c0-0.9,0.7-1.6,1.6-1.6h4.8c0.9,0,1.6,0.7,1.6,1.6v4.8   c0,0.9-0.7,1.6-1.6,1.6H82.6L82.6,24z M12.5,39.1c-0.9,0-1.6-0.7-1.6-1.6v-5c0-0.9,0.7-1.6,1.6-1.6h5c0.9,0,1.6,0.7,1.6,1.6v5   c0,0.9-0.7,1.6-1.6,1.6H12.5L12.5,39.1z M82.6,39c-0.9,0-1.6-0.7-1.6-1.6v-4.8c0-0.9,0.7-1.6,1.6-1.6h4.8c0.9,0,1.6,0.7,1.6,1.6   v4.8c0,0.9-0.7,1.6-1.6,1.6H82.6L82.6,39z M82.6,54c-0.9,0-1.6-0.7-1.6-1.6v-4.8c0-0.9,0.7-1.6,1.6-1.6h4.8c0.9,0,1.6,0.7,1.6,1.6   v4.8c0,0.9-0.7,1.6-1.6,1.6H82.6L82.6,54z M12.6,54c-0.9,0-1.6-0.7-1.6-1.6v-4.8c0-0.9,0.7-1.6,1.6-1.6h4.8c0.9,0,1.6,0.7,1.6,1.6   v4.8c0,0.9-0.7,1.6-1.6,1.6H12.6L12.6,54z M82.6,69c-0.9,0-1.6-0.7-1.6-1.6v-4.8c0-0.9,0.7-1.6,1.6-1.6h4.8c0.9,0,1.6,0.7,1.6,1.6   v4.8c0,0.9-0.7,1.6-1.6,1.6H82.6L82.6,69z M12.6,69c-0.9,0-1.6-0.7-1.6-1.6v-4.8c0-0.9,0.7-1.6,1.6-1.6h4.8c0.9,0,1.6,0.7,1.6,1.6   v4.8c0,0.9-0.7,1.6-1.6,1.6H12.6L12.6,69z M82.6,84c-0.9,0-1.6-0.7-1.6-1.6v-4.8c0-0.9,0.7-1.6,1.6-1.6h4.8c0.9,0,1.6,0.7,1.6,1.6   v4.8c0,0.9-0.7,1.6-1.6,1.6H82.6L82.6,84z M12.6,84c-0.9,0-1.6-0.7-1.6-1.6v-4.8c0-0.9,0.7-1.6,1.6-1.6h4.8c0.9,0,1.6,0.7,1.6,1.6   v4.8c0,0.9-0.7,1.6-1.6,1.6H12.6L12.6,84z"/><path display="none" d="M94.8,5.2v89.5h-5.5v-2.2c0-1-0.8-1.8-1.8-1.8h-4.8c-1,0-1.8,0.8-1.8,1.8v2.2H19.2v-2.2   c0-1-0.8-1.8-1.8-1.8h-4.8c-1,0-1.8,0.8-1.8,1.8v2.2H5.2V5.2h5.5v2.2c0,1,0.8,1.8,1.8,1.8h4.8c1,0,1.8-0.8,1.8-1.8V5.2h61.5v2.2   c0,1,0.8,1.8,1.8,1.8h4.8c1,0,1.8-0.8,1.8-1.8V5.2H94.8 M12.5,24.3h4.9c1,0,1.8-0.8,1.8-1.8v-4.9c0-1-0.8-1.8-1.8-1.8h-4.9   c-1,0-1.8,0.8-1.8,1.8v4.9C10.7,23.5,11.5,24.3,12.5,24.3 M82.6,24.2h4.8c1,0,1.8-0.8,1.8-1.8v-4.8c0-1-0.8-1.8-1.8-1.8h-4.8   c-1,0-1.8,0.8-1.8,1.8v4.8C80.8,23.4,81.6,24.2,82.6,24.2 M12.5,39.3h5c1,0,1.8-0.8,1.8-1.8v-5c0-1-0.8-1.8-1.8-1.8h-5   c-1,0-1.8,0.8-1.8,1.8v5C10.7,38.5,11.5,39.3,12.5,39.3 M82.6,39.2h4.8c1,0,1.8-0.8,1.8-1.8v-4.8c0-1-0.8-1.8-1.8-1.8h-4.8   c-1,0-1.8,0.8-1.8,1.8v4.8C80.8,38.4,81.6,39.2,82.6,39.2 M82.6,54.2h4.8c1,0,1.8-0.8,1.8-1.8v-4.8c0-1-0.8-1.8-1.8-1.8h-4.8   c-1,0-1.8,0.8-1.8,1.8v4.8C80.8,53.4,81.6,54.2,82.6,54.2 M12.6,54.2h4.8c1,0,1.8-0.8,1.8-1.8v-4.8c0-1-0.8-1.8-1.8-1.8h-4.8   c-1,0-1.8,0.8-1.8,1.8v4.8C10.8,53.4,11.6,54.2,12.6,54.2 M82.6,69.2h4.8c1,0,1.8-0.8,1.8-1.8v-4.8c0-1-0.8-1.8-1.8-1.8h-4.8   c-1,0-1.8,0.8-1.8,1.8v4.8C80.8,68.4,81.6,69.2,82.6,69.2 M12.6,69.2h4.8c1,0,1.8-0.8,1.8-1.8v-4.8c0-1-0.8-1.8-1.8-1.8h-4.8   c-1,0-1.8,0.8-1.8,1.8v4.8C10.8,68.4,11.6,69.2,12.6,69.2 M82.6,84.2h4.8c1,0,1.8-0.8,1.8-1.8v-4.8c0-1-0.8-1.8-1.8-1.8h-4.8   c-1,0-1.8,0.8-1.8,1.8v4.8C80.8,83.4,81.6,84.2,82.6,84.2 M12.6,84.2h4.8c1,0,1.8-0.8,1.8-1.8v-4.8c0-1-0.8-1.8-1.8-1.8h-4.8   c-1,0-1.8,0.8-1.8,1.8v4.8C10.8,83.4,11.6,84.2,12.6,84.2 M95,5h-6v2.4C89,8.3,88.3,9,87.4,9h-4.8C81.7,9,81,8.3,81,7.4V5H19v2.4   C19,8.3,18.3,9,17.4,9h-4.8C11.7,9,11,8.3,11,7.4V5H5v90h6v-2.4c0-0.9,0.7-1.6,1.6-1.6h4.8c0.9,0,1.6,0.7,1.6,1.6V95h62v-2.4   c0-0.9,0.7-1.6,1.6-1.6h4.8c0.9,0,1.6,0.7,1.6,1.6V95h6V5L95,5z M12.5,24c-0.9,0-1.6-0.7-1.6-1.6v-4.9c0-0.9,0.7-1.6,1.6-1.6h4.9   c0.9,0,1.6,0.7,1.6,1.6v4.9c0,0.9-0.7,1.6-1.6,1.6H12.5L12.5,24z M82.6,24c-0.9,0-1.6-0.7-1.6-1.6v-4.8c0-0.9,0.7-1.6,1.6-1.6h4.8   c0.9,0,1.6,0.7,1.6,1.6v4.8c0,0.9-0.7,1.6-1.6,1.6H82.6L82.6,24z M12.5,39.1c-0.9,0-1.6-0.7-1.6-1.6v-5c0-0.9,0.7-1.6,1.6-1.6h5   c0.9,0,1.6,0.7,1.6,1.6v5c0,0.9-0.7,1.6-1.6,1.6H12.5L12.5,39.1z M82.6,39c-0.9,0-1.6-0.7-1.6-1.6v-4.8c0-0.9,0.7-1.6,1.6-1.6h4.8   c0.9,0,1.6,0.7,1.6,1.6v4.8c0,0.9-0.7,1.6-1.6,1.6H82.6L82.6,39z M82.6,54c-0.9,0-1.6-0.7-1.6-1.6v-4.8c0-0.9,0.7-1.6,1.6-1.6h4.8   c0.9,0,1.6,0.7,1.6,1.6v4.8c0,0.9-0.7,1.6-1.6,1.6H82.6L82.6,54z M12.6,54c-0.9,0-1.6-0.7-1.6-1.6v-4.8c0-0.9,0.7-1.6,1.6-1.6h4.8   c0.9,0,1.6,0.7,1.6,1.6v4.8c0,0.9-0.7,1.6-1.6,1.6H12.6L12.6,54z M82.6,69c-0.9,0-1.6-0.7-1.6-1.6v-4.8c0-0.9,0.7-1.6,1.6-1.6h4.8   c0.9,0,1.6,0.7,1.6,1.6v4.8c0,0.9-0.7,1.6-1.6,1.6H82.6L82.6,69z M12.6,69c-0.9,0-1.6-0.7-1.6-1.6v-4.8c0-0.9,0.7-1.6,1.6-1.6h4.8   c0.9,0,1.6,0.7,1.6,1.6v4.8c0,0.9-0.7,1.6-1.6,1.6H12.6L12.6,69z M82.6,84c-0.9,0-1.6-0.7-1.6-1.6v-4.8c0-0.9,0.7-1.6,1.6-1.6h4.8   c0.9,0,1.6,0.7,1.6,1.6v4.8c0,0.9-0.7,1.6-1.6,1.6H82.6L82.6,84z M12.6,84c-0.9,0-1.6-0.7-1.6-1.6v-4.8c0-0.9,0.7-1.6,1.6-1.6h4.8   c0.9,0,1.6,0.7,1.6,1.6v4.8c0,0.9-0.7,1.6-1.6,1.6H12.6L12.6,84z"/><g display="none"><path display="inline" d="M94,6v88h-4v-1.4c0-1.4-1.2-2.6-2.6-2.6h-4.8c-1.4,0-2.6,1.2-2.6,2.6V94H20v-1.4c0-1.4-1.2-2.6-2.6-2.6    h-4.8c-1.4,0-2.6,1.2-2.6,2.6V94H6V6h4v1.4c0,1.4,1.2,2.6,2.6,2.6h4.8c1.4,0,2.6-1.2,2.6-2.6V6h60v1.4c0,1.4,1.2,2.6,2.6,2.6h4.8    c1.4,0,2.6-1.2,2.6-2.6V6H94 M12.5,25h4.9c1.4,0,2.6-1.2,2.6-2.6v-4.9c0-1.4-1.2-2.6-2.6-2.6h-4.9c-1.4,0-2.6,1.2-2.6,2.6v4.9    C10,23.9,11.1,25,12.5,25 M82.6,25h4.8c1.4,0,2.6-1.2,2.6-2.6v-4.8c0-1.4-1.2-2.6-2.6-2.6h-4.8c-1.4,0-2.6,1.2-2.6,2.6v4.8    C80,23.8,81.2,25,82.6,25 M12.5,40.1h5c1.4,0,2.6-1.2,2.6-2.6v-5c0-1.4-1.2-2.6-2.6-2.6h-5c-1.4,0-2.6,1.2-2.6,2.6v5    C9.9,38.9,11.1,40.1,12.5,40.1 M82.6,40h4.8c1.4,0,2.6-1.2,2.6-2.6v-4.8c0-1.4-1.2-2.6-2.6-2.6h-4.8c-1.4,0-2.6,1.2-2.6,2.6v4.8    C80,38.8,81.2,40,82.6,40 M82.6,55h4.8c1.4,0,2.6-1.2,2.6-2.6v-4.8c0-1.4-1.2-2.6-2.6-2.6h-4.8c-1.4,0-2.6,1.2-2.6,2.6v4.8    C80,53.8,81.2,55,82.6,55 M12.6,55h4.8c1.4,0,2.6-1.2,2.6-2.6v-4.8c0-1.4-1.2-2.6-2.6-2.6h-4.8c-1.4,0-2.6,1.2-2.6,2.6v4.8    C10,53.8,11.2,55,12.6,55 M82.6,70h4.8c1.4,0,2.6-1.2,2.6-2.6v-4.8c0-1.4-1.2-2.6-2.6-2.6h-4.8c-1.4,0-2.6,1.2-2.6,2.6v4.8    C80,68.8,81.2,70,82.6,70 M12.6,70h4.8c1.4,0,2.6-1.2,2.6-2.6v-4.8c0-1.4-1.2-2.6-2.6-2.6h-4.8c-1.4,0-2.6,1.2-2.6,2.6v4.8    C10,68.8,11.2,70,12.6,70 M82.6,85h4.8c1.4,0,2.6-1.2,2.6-2.6v-4.8c0-1.4-1.2-2.6-2.6-2.6h-4.8c-1.4,0-2.6,1.2-2.6,2.6v4.8    C80,83.8,81.2,85,82.6,85 M12.6,85h4.8c1.4,0,2.6-1.2,2.6-2.6v-4.8c0-1.4-1.2-2.6-2.6-2.6h-4.8c-1.4,0-2.6,1.2-2.6,2.6v4.8    C10,83.8,11.2,85,12.6,85 M95,5h-6v2.4C89,8.3,88.3,9,87.4,9h-4.8C81.7,9,81,8.3,81,7.4V5H19v2.4C19,8.3,18.3,9,17.4,9h-4.8    C11.7,9,11,8.3,11,7.4V5H5v90h6v-2.4c0-0.9,0.7-1.6,1.6-1.6h4.8c0.9,0,1.6,0.7,1.6,1.6V95h62v-2.4c0-0.9,0.7-1.6,1.6-1.6h4.8    c0.9,0,1.6,0.7,1.6,1.6V95h6V5L95,5z M12.5,24c-0.9,0-1.6-0.7-1.6-1.6v-4.9c0-0.9,0.7-1.6,1.6-1.6h4.9c0.9,0,1.6,0.7,1.6,1.6v4.9    c0,0.9-0.7,1.6-1.6,1.6H12.5L12.5,24z M82.6,24c-0.9,0-1.6-0.7-1.6-1.6v-4.8c0-0.9,0.7-1.6,1.6-1.6h4.8c0.9,0,1.6,0.7,1.6,1.6v4.8    c0,0.9-0.7,1.6-1.6,1.6H82.6L82.6,24z M12.5,39.1c-0.9,0-1.6-0.7-1.6-1.6v-5c0-0.9,0.7-1.6,1.6-1.6h5c0.9,0,1.6,0.7,1.6,1.6v5    c0,0.9-0.7,1.6-1.6,1.6H12.5L12.5,39.1z M82.6,39c-0.9,0-1.6-0.7-1.6-1.6v-4.8c0-0.9,0.7-1.6,1.6-1.6h4.8c0.9,0,1.6,0.7,1.6,1.6    v4.8c0,0.9-0.7,1.6-1.6,1.6H82.6L82.6,39z M82.6,54c-0.9,0-1.6-0.7-1.6-1.6v-4.8c0-0.9,0.7-1.6,1.6-1.6h4.8c0.9,0,1.6,0.7,1.6,1.6    v4.8c0,0.9-0.7,1.6-1.6,1.6H82.6L82.6,54z M12.6,54c-0.9,0-1.6-0.7-1.6-1.6v-4.8c0-0.9,0.7-1.6,1.6-1.6h4.8c0.9,0,1.6,0.7,1.6,1.6    v4.8c0,0.9-0.7,1.6-1.6,1.6H12.6L12.6,54z M82.6,69c-0.9,0-1.6-0.7-1.6-1.6v-4.8c0-0.9,0.7-1.6,1.6-1.6h4.8c0.9,0,1.6,0.7,1.6,1.6    v4.8c0,0.9-0.7,1.6-1.6,1.6H82.6L82.6,69z M12.6,69c-0.9,0-1.6-0.7-1.6-1.6v-4.8c0-0.9,0.7-1.6,1.6-1.6h4.8c0.9,0,1.6,0.7,1.6,1.6    v4.8c0,0.9-0.7,1.6-1.6,1.6H12.6L12.6,69z M82.6,84c-0.9,0-1.6-0.7-1.6-1.6v-4.8c0-0.9,0.7-1.6,1.6-1.6h4.8c0.9,0,1.6,0.7,1.6,1.6    v4.8c0,0.9-0.7,1.6-1.6,1.6H82.6L82.6,84z M12.6,84c-0.9,0-1.6-0.7-1.6-1.6v-4.8c0-0.9,0.7-1.6,1.6-1.6h4.8c0.9,0,1.6,0.7,1.6,1.6    v4.8c0,0.9-0.7,1.6-1.6,1.6H12.6L12.6,84z"/></g></g>
</svg>