<svg xmlns="http://www.w3.org/2000/svg" xmlns:xlink="http://www.w3.org/1999/xlink" version="1.1" x="0px" y="0px" viewBox="0 0 100 100" enable-background="new 0 0 100 100" xml:space="preserve"><g><path fill="#fff" d="M34.328,35.384H6.585C5.709,35.384,5,34.675,5,33.8s0.709-1.585,1.585-1.585h27.743   c0.875,0,1.585,0.709,1.585,1.585S35.203,35.384,34.328,35.384z"/><path fill="#fff" d="M34.328,49.688H15.363c-0.875,0-1.585-0.709-1.585-1.585c0-0.875,0.709-1.585,1.585-1.585h18.965   c0.875,0,1.585,0.709,1.585,1.585C35.912,48.979,35.203,49.688,34.328,49.688z"/><path fill="#fff" d="M34.328,63.991H24.141c-0.875,0-1.585-0.709-1.585-1.585s0.709-1.585,1.585-1.585h10.187   c0.875,0,1.585,0.709,1.585,1.585S35.203,63.991,34.328,63.991z"/><path fill="#fff" d="M68.716,76.284c-14.492,0-26.284-11.791-26.284-26.284s11.791-26.284,26.284-26.284S95,35.507,95,50   S83.209,76.284,68.716,76.284z M68.716,28.152c-12.046,0-21.847,9.801-21.847,21.848s9.801,21.848,21.847,21.848   S90.563,62.047,90.563,50S80.763,28.152,68.716,28.152z"/></g>></svg>