<svg xmlns="http://www.w3.org/2000/svg" data-name="Layer 1" viewBox="0 0 100 100" x="0px" y="0px" stroke-width="1" fill="#fff"><path d="M78.63,16.8a0.94,0.94,0,0,0,0-.15l0,0a1,1,0,0,0-.11-0.19,1,1,0,0,0-.1-0.15,2.95,2.95,0,0,0-.31-0.22l-0.15,0a1,1,0,0,0-.23,0h0a2.15,2.15,0,0,1-.32.05L43.12,27.42a1,1,0,0,0-.68.95V66a11.55,11.55,0,1,0,2,6.49V38.21L76.67,26.93V54.59a11.55,11.55,0,1,0,2,6.49V17A1,1,0,0,0,78.63,16.8ZM32.89,82a9.55,9.55,0,1,1,9.55-9.55A9.56,9.56,0,0,1,32.89,82ZM67.11,70.63a9.55,9.55,0,1,1,9.55-9.55A9.56,9.56,0,0,1,67.11,70.63Zm9.55-45.82L44.44,36.09v-7L76.67,18.35v6.46Z"/></svg>
