<svg xmlns="http://www.w3.org/2000/svg" xmlns:xlink="http://www.w3.org/1999/xlink" viewBox="0 0 58 58" version="1.1" x="0px" y="0px"><g stroke="none" stroke-width="1" fill="none" fill-rule="evenodd"><g transform="translate(-601.000000, -658.000000)" fill="#fff"><g transform="translate(600.000000, 658.000000)"><path d="M56.606,14.9775 L47.979,23.6045 C47.452,24.1315 46.531,24.1315 46.003,23.6045 L40.698,18.2995 C40.307,17.9095 39.675,17.9105 39.284,18.2985 L31.272,26.2985 C31.084,26.4865 30.979,26.7415 30.979,27.0065 C30.979,27.2725 31.084,27.5265 31.272,27.7145 L39.911,36.3415 L36.906,52.4655 C36.77,53.0475 36.385,53.5345 35.848,53.7995 C35.304,54.0695 34.691,54.0765 34.122,53.8215 C33.279,53.4445 32.818,52.4205 33.066,51.3665 L34.979,39.1625 C35.027,38.8535 34.929,38.5405 34.713,38.3155 L27.609,30.8865 C27.42,30.6895 27.159,30.5785 26.886,30.5785 C26.646,30.5955 26.345,30.6925 26.156,30.8945 L18.557,39.0065 L4.991,39.0065 C4.437,39.0065 3.921,38.7855 3.54,38.3825 C3.158,37.9815 2.964,37.4545 2.994,36.8985 C3.048,35.8555 4.021,35.0065 5.161,35.0065 L14.991,35.0065 C15.275,35.0065 15.546,34.8855 15.736,34.6735 L32.736,15.6735 C32.999,15.3795 33.064,14.9585 32.904,14.5985 C32.743,14.2385 32.385,14.0065 31.991,14.0065 L26.991,14.0065 C26.716,14.0065 26.453,14.1205 26.264,14.3205 L19.438,21.5435 C19.17,21.8355 18.789,22.0045 18.391,22.0065 L18.384,22.0065 C17.984,22.0065 17.609,21.8415 17.329,21.5415 C16.826,21.0015 16.898,20.0475 17.469,19.4765 L26.39,11.0065 L36.88,11.0065 C37.345,11.0065 37.788,11.1795 38.128,11.4945 L45.449,18.2525 C46.532,19.2525 48.192,19.2145 49.229,18.1655 L54.446,12.8945 C55.002,12.3395 55.907,12.3355 56.464,12.8945 L56.606,13.0365 C57.141,13.5715 57.141,14.4425 56.606,14.9775 M58.02,11.6225 L57.878,11.4805 C56.544,10.1465 54.37,10.1425 53.028,11.4845 L47.807,16.7595 C47.532,17.0365 47.092,17.0465 46.805,16.7835 L39.485,10.0255 C38.774,9.3685 37.849,9.0065 36.88,9.0065 L25.991,9.0065 C25.734,9.0065 25.488,9.1055 25.302,9.2815 L16.073,18.0435 C14.721,19.3975 14.628,21.5785 15.867,22.9065 C16.529,23.6165 17.423,24.0065 18.384,24.0065 L18.401,24.0065 C19.355,24.0015 20.27,23.5965 20.903,22.9055 L27.421,16.0065 L29.754,16.0065 L14.543,33.0065 L5.161,33.0065 C2.937,33.0065 1.108,34.6695 0.997,36.7925 C0.939,37.9025 1.326,38.9565 2.089,39.7595 C2.841,40.5525 3.898,41.0065 4.991,41.0065 L18.991,41.0065 C19.267,41.0065 19.531,40.8925 19.721,40.6905 L26.894,33.0335 L32.926,39.3405 L31.106,50.9795 C30.647,52.9075 31.571,54.8715 33.304,55.6465 C33.838,55.8855 34.405,56.0055 34.969,56.0055 C35.576,56.0055 36.18,55.8675 36.736,55.5915 C37.81,55.0605 38.582,54.0865 38.863,52.8765 L41.974,36.1905 C42.034,35.8665 41.931,35.5325 41.697,35.2985 L33.394,27.0065 L39.99,20.4205 L44.588,25.0185 C45.872,26.3015 48.11,26.3015 49.393,25.0185 L58.02,16.3915 C58.657,15.7545 59.008,14.9075 59.008,14.0065 C59.008,13.1065 58.657,12.2585 58.02,11.6225"/><path d="M46.9907,2.0068 C49.1967,2.0068 50.9907,3.8008 50.9907,6.0068 C50.9907,8.2128 49.1967,10.0068 46.9907,10.0068 C44.7847,10.0068 42.9907,8.2128 42.9907,6.0068 C42.9907,3.8008 44.7847,2.0068 46.9907,2.0068 M46.9907,12.0068 C50.2997,12.0068 52.9907,9.3158 52.9907,6.0068 C52.9907,2.6978 50.2997,0.0068 46.9907,0.0068 C43.6817,0.0068 40.9907,2.6978 40.9907,6.0068 C40.9907,9.3158 43.6817,12.0068 46.9907,12.0068"/></g></g></g></svg>
