<svg xmlns:dc="http://purl.org/dc/elements/1.1/" xmlns:cc="http://creativecommons.org/ns#" xmlns:rdf="http://www.w3.org/1999/02/22-rdf-syntax-ns#" xmlns:svg="http://www.w3.org/2000/svg" xmlns="http://www.w3.org/2000/svg" xmlns:sodipodi="http://sodipodi.sourceforge.net/DTD/sodipodi-0.dtd" xmlns:inkscape="http://www.inkscape.org/namespaces/inkscape" version="1.1" x="0px" y="0px" viewBox="0 0 100 100"><g transform="translate(0,-952.36215)"><path style="text-indent:0;text-transform:none;direction:ltr;block-progression:tb;baseline-shift:baseline;color:#000000;enable-background:accumulate;" d="m 33,966.3627 c -4.651985,0 -7.874563,2.64674 -9.34375,5.99995 C 22.187063,975.71587 22,979.68161 22,983.36257 c 0,9.70232 3.042054,17.52833 7.03125,24.59353 0.443442,4.841 1.845661,8.3635 3.8125,10.7499 2.026772,2.4591 4.686081,3.6563 7.15625,3.6563 4.238019,0 8,-3.7325 8,-9 0,-2.7498 -0.512371,-6.4948 -2.875,-10.3749 0.959389,-4.83023 1.948311,-10.29064 1.875,-15.62486 -1.42e-4,-0.0103 1.5e-4,-0.0209 0,-0.0312 -0.0061,-5.88944 -1.684287,-10.95686 -4.21875,-14.65614 -2.539072,-3.706 -5.969489,-6.15391 -9.6875,-6.31245 a 2.0002,2.0001847 0 0 0 -0.09375,0 z m -0.09375,3.99997 c 0.0083,3.6e-4 0.02289,-4.1e-4 0.03125,0 1.978219,0.0962 4.535091,1.60328 6.5625,4.56246 2.035982,2.9717 3.5,7.29472 3.5,12.43741 a 2.0002,2.0001847 0 0 0 0,0.0312 c 0.06927,4.76733 -0.86679,9.97658 -1.8125,14.74991 -2.438206,1.5922 -5.291305,2.6652 -9.0625,3.0937 C 28.549198,998.74176 26,991.89415 26,983.36257 c 0,-3.49516 0.312937,-7.05349 1.34375,-9.40618 1.019723,-2.32738 2.294122,-3.56694 5.5625,-3.59372 z m 34,11.99991 c -3.718011,0.15854 -7.148428,2.60644 -9.6875,6.31245 -2.534463,3.69928 -4.212688,8.76663 -4.21875,14.65617 -1.1e-5,0.011 0,0.02 0,0.031 -0.07331,5.3343 0.915611,10.7947 1.875,15.6249 -2.362629,3.8801 -2.875,7.6251 -2.875,10.3749 0,5.2675 3.761981,9 8,9 2.470169,0 5.129478,-1.1972 7.15625,-3.6563 1.966839,-2.3864 3.369058,-5.9089 3.8125,-10.7499 C 74.957945,1016.8908 78,1009.0647 78,999.36245 78,995.68149 77.812937,991.71575 76.34375,988.36253 74.874563,985.00932 71.651985,982.36258 67,982.36258 a 2.0002,2.0001847 0 0 0 -0.09375,0 z m 0.15625,3.99997 c 0.0119,6e-5 0.0194,-1e-4 0.03125,0 3.268378,0.0268 4.542777,1.26634 5.5625,3.59372 1.030813,2.35249 1.34375,5.91101 1.34375,9.40618 0,8.53155 -2.549197,15.37915 -6.125,21.87485 -3.771195,-0.4285 -6.624294,-1.5015 -9.0625,-3.0937 -0.945709,-4.7731 -1.881772,-9.9825 -1.8125,-14.7499 a 2.0002,2.0001847 0 0 0 0,-0.031 c 0,-5.14268 1.464018,-9.46568 3.5,-12.43739 2.027409,-2.95919 4.584281,-4.46623 6.5625,-4.56246 z m -25,19.68735 c 1.402753,2.7198 1.9375,5.2696 1.9375,7.3124 0,3.5259 -1.980957,5 -4,5 -1.22605,0 -2.700127,-0.5656 -4.0625,-2.2187 -1.154318,-1.4005 -2.083817,-3.8716 -2.59375,-7.25 3.359647,-0.4856 6.233727,-1.4385 8.71875,-2.8437 z m 15.875,15.9999 c 2.485023,1.4052 5.359103,2.3581 8.71875,2.8437 -0.509933,3.3784 -1.439432,5.8495 -2.59375,7.2499 -1.362373,1.6531 -2.83645,2.2188 -4.0625,2.2188 -2.019043,0 -4,-1.4741 -4,-5 0,-2.0429 0.534747,-4.5926 1.9375,-7.3124 z" fill="#fff" fill-opacity="1" stroke="none" marker="none" visibility="visible" display="inline" overflow="visible"/></g></svg>