<svg xmlns="http://www.w3.org/2000/svg" xmlns:xlink="http://www.w3.org/1999/xlink" version="1.1" x="0px" y="0px" viewBox="0 0 512 580" style="fill:#fff" enable-background="new 0 0 512 512" xml:space="preserve"><g><path d="M430.1,2H81.9C58.6,2,39.6,21,39.6,44.3v345.6c0,23.3,19,42.3,42.3,42.3h15.9l-27.1,57.6c-4.4,9.4,2.4,20.1,12.8,20.1h65.8   c5.5,0,10.4-3.2,12.8-8.1l32.8-69.7h122.2l32.8,69.7c2.3,4.9,7.3,8.1,12.8,8.1h65.8c10.3,0,17.2-10.8,12.8-20.1l-27.1-57.6h15.9   c23.3,0,42.3-19,42.3-42.3V44.3C472.4,21,453.4,2,430.1,2z M140.4,481.8h-34.6l23.3-49.5h34.6L140.4,481.8z M371.6,481.8   l-23.3-49.5h34.6l23.3,49.5H371.6z M444.2,389.9c0,7.8-6.3,14.1-14.1,14.1H81.9c-7.8,0-14.1-6.3-14.1-14.1V44.3   c0-7.8,6.3-14.1,14.1-14.1h348.1c7.8,0,14.1,6.3,14.1,14.1V389.9z"/><path d="M395.1,65.2H116.9c-7.8,0-14.1,6.3-14.1,14.1v133.3c0,7.8,6.3,14.1,14.1,14.1h278.2c7.8,0,14.1-6.3,14.1-14.1V79.3   C409.2,71.5,402.9,65.2,395.1,65.2z M381,198.5H131V93.4H381V198.5z"/><path d="M166.9,267.2c-26.6,0-48.2,21.6-48.2,48.2s21.6,48.2,48.2,48.2s48.2-21.6,48.2-48.2S193.5,267.2,166.9,267.2z M166.9,335.3   c-11,0-20-9-20-20s9-20,20-20c11,0,20,9,20,20S177.9,335.3,166.9,335.3z"/><path d="M345.1,267.2c-26.6,0-48.2,21.6-48.2,48.2s21.6,48.2,48.2,48.2s48.2-21.6,48.2-48.2S371.6,267.2,345.1,267.2z M345.1,335.3   c-11,0-20-9-20-20s9-20,20-20c11,0,20,9,20,20S356.1,335.3,345.1,335.3z"/></g></svg>