<svg xmlns="http://www.w3.org/2000/svg" xmlns:xlink="http://www.w3.org/1999/xlink" version="1.1" x="0px" y="0px" viewBox="0 0 100 100" style="enable-background:new 0 0 100 100;fill:#fff" xml:space="preserve"><g><path d="M31.1,36.3l13,13l-8.4,8.3l-12.6-1.2L16,63.6l-1.8,11.8l4.9,4.9l9.1-9.1l4.8,4.8L23.9,85l4.8,4.8l12-1.6l7.1-7.1l-1.1-13   l8.1-8L81,86.4l10.8-10.8L65.7,49.4l6.5-6.4l12.6,1.2l7.1-7.1l1.8-11.8l-4.9-4.9l-9.1,9.1l-4.8-4.8l9.1-9.1l-4.8-4.8l-12,1.6   l-7.1,7.1l1.1,13l-6.2,6.2L42,25.6l8.5-8.4l-7.8-7.8L29,9.4l-21,20.7l14.6,14.6L31.1,36.3z M44.7,80l-5.4,5.4l-9.5,1.2L28.1,85   l9.1-9.1l-9-9L19.1,76l-1.7-1.7l1.4-9.3l5.4-5.4l12.6,1.2l9.4-9.3l6.5,6.5l-9.1,9L44.7,80z M63.2,20.6l5.4-5.4l9.5-1.2l1.7,1.7   l-9.1,9.1l9,9l9.1-9.1l1.7,1.7l-1.4,9.3l-5.4,5.4l-12.6-1.2l-7.5,7.4L57,40.8l7.2-7.2L63.2,20.6z M30.2,12.5l11.3,0l4.8,4.8   l-8.5,8.4l16.1,16.2l0,0l8.6,8.6l25.1,25.2L81,82.1L54.9,55.9l0,0l-6.5-6.5l0,0L31.2,32.1l-8.6,8.5L12.2,30.2L30.2,12.5z"/></g></svg>